name Walk6.mot
datacolumns 19
datarows 20
range 1.54500000 1.56400000
endheader

                time	   L_ground_force_vx	   L_ground_force_vy	   L_ground_force_vz	   L_ground_force_px	   L_ground_force_py	   L_ground_force_pz	   R_ground_force_vx	   R_ground_force_vy	   R_ground_force_vz	   R_ground_force_px	   R_ground_force_py	   R_ground_force_pz	   L_ground_torque_x	   L_ground_torque_y	   L_ground_torque_z	   R_ground_torque_x	   R_ground_torque_y	   R_ground_torque_z	
          1.54500000	          0.01816759	          0.04013643	         -0.00482364	         -0.00030599	          0.00000000	          0.00003463	        -10.79332003	        433.73793303	        -35.24212774	          0.23821452	          0.00000000	          0.12844594	          0.00000000	         -0.00030705	          0.00000000	          0.00000000	          6.80753644	          0.00000000	
          1.54600000	          0.01658605	          0.03607744	         -0.00448701	         -0.00029223	          0.00000000	          0.00003327	        -10.78048933	        432.18839036	        -35.10171643	          0.23912186	          0.00000000	          0.12851054	          0.00000000	         -0.00028407	          0.00000000	          0.00000000	          6.74746782	          0.00000000	
          1.54700000	          0.01507630	          0.03222722	         -0.00416205	         -0.00027854	          0.00000000	          0.00003189	        -10.76426613	        430.70020188	        -34.96261845	          0.24001841	          0.00000000	          0.12857235	          0.00000000	         -0.00026197	          0.00000000	          0.00000000	          6.68851327	          0.00000000	
          1.54800000	          0.01363794	          0.02858259	         -0.00384899	         -0.00026495	          0.00000000	          0.00003051	        -10.74440596	        429.27339035	        -34.82486609	          0.24090380	          0.00000000	          0.12863134	          0.00000000	         -0.00024077	          0.00000000	          0.00000000	          6.63062147	          0.00000000	
          1.54900000	          0.01227035	          0.02513983	         -0.00354800	         -0.00025153	          0.00000000	          0.00002914	        -10.72067381	        427.90791703	        -34.68849499	          0.24177763	          0.00000000	          0.12868749	          0.00000000	         -0.00022045	          0.00000000	          0.00000000	          6.57374170	          0.00000000	
          1.55000000	          0.01097267	          0.02189479	         -0.00325920	         -0.00023829	          0.00000000	          0.00002777	        -10.69284455	        426.60368212	        -34.55354375	          0.24263954	          0.00000000	          0.12874077	          0.00000000	         -0.00020103	          0.00000000	          0.00000000	          6.51782400	          0.00000000	
          1.55100000	          0.00974386	          0.01884293	         -0.00298264	         -0.00022528	          0.00000000	          0.00002641	        -10.66070303	        425.36052666	        -34.42005334	          0.24348918	          0.00000000	          0.12879117	          0.00000000	         -0.00018251	          0.00000000	          0.00000000	          6.46281903	          0.00000000	
          1.55200000	          0.00858270	          0.01597934	         -0.00271832	         -0.00021252	          0.00000000	          0.00002507	        -10.62404409	        424.17823583	        -34.28806689	          0.24432625	          0.00000000	          0.12883866	          0.00000000	         -0.00016486	          0.00000000	          0.00000000	          6.40867791	          0.00000000	
          1.55300000	          0.00748785	          0.01329885	         -0.00246620	         -0.00020005	          0.00000000	          0.00002375	        -10.58267239	        423.05654319	        -34.15762969	          0.24515044	          0.00000000	          0.12888322	          0.00000000	         -0.00014810	          0.00000000	          0.00000000	          6.35535203	          0.00000000	
          1.55400000	          0.00645778	          0.01079601	         -0.00222620	         -0.00018787	          0.00000000	          0.00002245	        -10.53640199	        421.99513495	        -34.02878956	          0.24596147	          0.00000000	          0.12892486	          0.00000000	         -0.00013220	          0.00000000	          0.00000000	          6.30279293	          0.00000000	
          1.55500000	          0.00549090	          0.00846517	         -0.00199820	         -0.00017603	          0.00000000	          0.00002117	        -10.48505610	        420.99365326	        -33.90159753	          0.24675911	          0.00000000	          0.12896355	          0.00000000	         -0.00011715	          0.00000000	          0.00000000	          6.25095231	          0.00000000	
          1.55600000	          0.00458547	          0.00630053	         -0.00178202	         -0.00016453	          0.00000000	          0.00001993	        -10.42846664	        420.05169822	        -33.77610839	          0.24754314	          0.00000000	          0.12899930	          0.00000000	         -0.00010294	          0.00000000	          0.00000000	          6.19978213	          0.00000000	
          1.55700000	          0.00373970	          0.00429612	         -0.00157750	         -0.00015338	          0.00000000	          0.00001871	        -10.36647386	        419.16882826	        -33.65238087	          0.24831336	          0.00000000	          0.12903210	          0.00000000	         -0.00008955	          0.00000000	          0.00000000	          6.14923479	          0.00000000	
          1.55800000	          0.00295171	          0.00244590	         -0.00138440	         -0.00014260	          0.00000000	          0.00001753	        -10.29892580	        418.34455979	        -33.53047716	          0.24906961	          0.00000000	          0.12906195	          0.00000000	         -0.00007696	          0.00000000	          0.00000000	          6.09926327	          0.00000000	
          1.55900000	          0.00221956	          0.00074375	         -0.00120249	         -0.00013220	          0.00000000	          0.00001638	        -10.22567772	        417.57836661	        -33.41046171	          0.24981173	          0.00000000	          0.12908885	          0.00000000	         -0.00006515	          0.00000000	          0.00000000	          6.04982110	          0.00000000	
          1.56000000	          0.00154128	         -0.00081648	         -0.00103150	         -0.00012218	          0.00000000	          0.00001527	        -10.14659172	        416.86968010	        -33.29239951	          0.25053958	          0.00000000	          0.12911279	          0.00000000	         -0.00005410	          0.00000000	          0.00000000	          6.00086233	          0.00000000	
          1.56100000	          0.00091484	         -0.00224097	         -0.00087116	         -0.00011255	          0.00000000	          0.00001419	        -10.06153667	        416.21789012	        -33.17635448	          0.25125302	          0.00000000	          0.12913378	          0.00000000	         -0.00004378	          0.00000000	          0.00000000	          5.95234146	          0.00000000	
          1.56200000	          0.00033821	         -0.00353588	         -0.00072115	         -0.00010332	          0.00000000	          0.00001315	         -9.97038859	        415.62234683	        -33.06238807	          0.25195194	          0.00000000	          0.12915182	          0.00000000	         -0.00003417	          0.00000000	          0.00000000	          5.90421334	          0.00000000	
          1.56300000	         -0.00019067	         -0.00470732	         -0.00058117	         -0.00009448	          0.00000000	          0.00001215	         -9.87303141	        415.08236310	        -32.95055858	          0.25263623	          0.00000000	          0.12916691	          0.00000000	         -0.00002525	          0.00000000	          0.00000000	          5.85643315	          0.00000000	
          1.56400000	         -0.00067387	         -0.00576138	         -0.00045090	         -0.00008604	          0.00000000	          0.00001119	         -9.76935810	        414.59721764	        -32.84092100	          0.25330579	          0.00000000	          0.12917905	          0.00000000	         -0.00001700	          0.00000000	          0.00000000	          5.80895641	          0.00000000	
